
  <svg
    width="1000"
    height="1000"
    viewBox="0 0 1000 1000"
    xmlns="http://www.w3.org/2000/svg"
  >
    <defs>
      <filter id="grain" x="-50vw" y="-50vh" width="100vw" height="100vh">
    <feFlood flood-color="#ffffff" result="neutral-gray" />
  
    <feTurbulence
      in="neutral-gray"
      type="fractalNoise"
      baseFrequency="2.5"
      numOctaves="100"
      stitchTiles="stitch"
      result="noise"
    />
  
    <feColorMatrix
      in="noise"
      type="saturate"
      values="0"
      result="destaturatedNoise"
    ></feColorMatrix>
  
    <feComponentTransfer in="desaturatedNoise" result="theNoise">
      <feFuncA type="table" tableValues="0 0 0.5 0"></feFuncA>
    </feComponentTransfer>
  
    <feBlend
      in="SourceGraphic"
      in2="theNoise"
      mode="soft-light"
      result="noisy-image"
    />
  </filter>
      
      
      
      
      
      
      <clipPath id="shape">
        <path fill="currentColor" d="M885,606Q791,712,690,742Q589,772,478.5,839Q368,906,290,807.5Q212,709,173,604.5Q134,500,117.5,355Q101,210,239,165.5Q377,121,510.5,88.5Q644,56,694.5,189Q745,322,862,411Q979,500,885,606Z"></path>
      </clipPath>
    </defs>
  
    

    <g filter="url(#grain)" clip-path="url(#shape)">
      <path fill="#f74545" d="M885,606Q791,712,690,742Q589,772,478.5,839Q368,906,290,807.5Q212,709,173,604.5Q134,500,117.5,355Q101,210,239,165.5Q377,121,510.5,88.5Q644,56,694.5,189Q745,322,862,411Q979,500,885,606Z" />
    </g>

    
  
  </svg>