
  <svg
    width="1000"
    height="1000"
    viewBox="0 0 1000 1000"
    xmlns="http://www.w3.org/2000/svg"
  >
    <defs>
      <filter id="grain" x="-50vw" y="-50vh" width="100vw" height="100vh">
    <feFlood flood-color="#ffffff" result="neutral-gray" />
  
    <feTurbulence
      in="neutral-gray"
      type="fractalNoise"
      baseFrequency="2.5"
      numOctaves="100"
      stitchTiles="stitch"
      result="noise"
    />
  
    <feColorMatrix
      in="noise"
      type="saturate"
      values="0"
      result="destaturatedNoise"
    ></feColorMatrix>
  
    <feComponentTransfer in="desaturatedNoise" result="theNoise">
      <feFuncA type="table" tableValues="0 0 0.5 0"></feFuncA>
    </feComponentTransfer>
  
    <feBlend
      in="SourceGraphic"
      in2="theNoise"
      mode="soft-light"
      result="noisy-image"
    />
  </filter>
      
      
      
      
      
      
      <clipPath id="shape">
        <path fill="currentColor" d="M853.5,629Q855,758,733,800.5Q611,843,490,873Q369,903,268.5,822Q168,741,101,620.5Q34,500,155,418.5Q276,337,336.5,260.5Q397,184,495,198.5Q593,213,671,266Q749,319,800.5,409.5Q852,500,853.5,629Z"></path>
      </clipPath>
    </defs>
  
    

    <g filter="url(#grain)" clip-path="url(#shape)">
      <path fill="#f74545" d="M853.5,629Q855,758,733,800.5Q611,843,490,873Q369,903,268.5,822Q168,741,101,620.5Q34,500,155,418.5Q276,337,336.5,260.5Q397,184,495,198.5Q593,213,671,266Q749,319,800.5,409.5Q852,500,853.5,629Z" />
    </g>

    
  
  </svg>