<svg id="visual" viewBox="0 300 900 300" width="900" height="300" xmlns="http://www.w3.org/2000/svg" xmlns:xlink="http://www.w3.org/1999/xlink" version="1.1"><path d="M0 384L21.5 393.2C43 402.3 86 420.7 128.8 417.2C171.7 413.7 214.3 388.3 257.2 390C300 391.7 343 420.3 385.8 425C428.7 429.7 471.3 410.3 514.2 397.7C557 385 600 379 642.8 385C685.7 391 728.3 409 771.2 409C814 409 857 391 878.5 382L900 373L900 601L878.5 601C857 601 814 601 771.2 601C728.3 601 685.7 601 642.8 601C600 601 557 601 514.2 601C471.3 601 428.7 601 385.8 601C343 601 300 601 257.2 601C214.3 601 171.7 601 128.8 601C86 601 43 601 21.5 601L0 601Z" fill="#2c760f"></path><path d="M0 442L21.5 447.3C43 452.7 86 463.3 128.8 459C171.7 454.7 214.3 435.3 257.2 422C300 408.7 343 401.3 385.8 406.2C428.7 411 471.3 428 514.2 434.8C557 441.7 600 438.3 642.8 432.8C685.7 427.3 728.3 419.7 771.2 419.7C814 419.7 857 427.3 878.5 431.2L900 435L900 601L878.5 601C857 601 814 601 771.2 601C728.3 601 685.7 601 642.8 601C600 601 557 601 514.2 601C471.3 601 428.7 601 385.8 601C343 601 300 601 257.2 601C214.3 601 171.7 601 128.8 601C86 601 43 601 21.5 601L0 601Z" fill="#209044"></path><path d="M0 466L21.5 462.7C43 459.3 86 452.7 128.8 448C171.7 443.3 214.3 440.7 257.2 444C300 447.3 343 456.7 385.8 461.2C428.7 465.7 471.3 465.3 514.2 461.5C557 457.7 600 450.3 642.8 450.2C685.7 450 728.3 457 771.2 457.5C814 458 857 452 878.5 449L900 446L900 601L878.5 601C857 601 814 601 771.2 601C728.3 601 685.7 601 642.8 601C600 601 557 601 514.2 601C471.3 601 428.7 601 385.8 601C343 601 300 601 257.2 601C214.3 601 171.7 601 128.8 601C86 601 43 601 21.5 601L0 601Z" fill="#02aa72"></path><path d="M0 536L21.5 529C43 522 86 508 128.8 500.2C171.7 492.3 214.3 490.7 257.2 496.8C300 503 343 517 385.8 524.5C428.7 532 471.3 533 514.2 531.5C557 530 600 526 642.8 519.2C685.7 512.3 728.3 502.7 771.2 499.7C814 496.7 857 500.3 878.5 502.2L900 504L900 601L878.5 601C857 601 814 601 771.2 601C728.3 601 685.7 601 642.8 601C600 601 557 601 514.2 601C471.3 601 428.7 601 385.8 601C343 601 300 601 257.2 601C214.3 601 171.7 601 128.8 601C86 601 43 601 21.5 601L0 601Z" fill="#00c4a0"></path><path d="M0 547L21.5 543.7C43 540.3 86 533.7 128.8 530.7C171.7 527.7 214.3 528.3 257.2 531.2C300 534 343 539 385.8 538.5C428.7 538 471.3 532 514.2 534.7C557 537.3 600 548.7 642.8 553C685.7 557.3 728.3 554.7 771.2 552.8C814 551 857 550 878.5 549.5L900 549L900 601L878.5 601C857 601 814 601 771.2 601C728.3 601 685.7 601 642.8 601C600 601 557 601 514.2 601C471.3 601 428.7 601 385.8 601C343 601 300 601 257.2 601C214.3 601 171.7 601 128.8 601C86 601 43 601 21.5 601L0 601Z" fill="#10ddce"></path></svg>